<svg width="24" height="24" viewBox="0 0 24 24" fill="none" xmlns="http://www.w3.org/2000/svg">
<path fill-rule="evenodd" clip-rule="evenodd" d="M12 6.5C8.9624 6.5 6.49997 8.96243 6.49997 12C6.49997 15.0376 8.9624 17.5 12 17.5C15.0376 17.5 17.5 15.0376 17.5 12C17.5 8.96243 15.0376 6.5 12 6.5ZM4.99997 12C4.99997 8.13401 8.13398 5 12 5C15.866 5 19 8.13401 19 12C19 15.866 15.866 19 12 19C8.13398 19 4.99997 15.866 4.99997 12Z" fill="white" fill-opacity="0.24"/>
<path fill-rule="evenodd" clip-rule="evenodd" d="M12 8C12.4142 8 12.75 8.33579 12.75 8.75V11.6893L13.7803 12.7197C14.0732 13.0126 14.0732 13.4874 13.7803 13.7803C13.4874 14.0732 13.0126 14.0732 12.7197 13.7803L11.4697 12.5303C11.329 12.3897 11.25 12.1989 11.25 12V8.75C11.25 8.33579 11.5858 8 12 8Z" fill="white" fill-opacity="0.24"/>
</svg>
