<svg width="25" height="24" viewBox="0 0 25 24" fill="none" xmlns="http://www.w3.org/2000/svg">
<path d="M10.5312 13C14.7812 13 14.7812 7.75 14.7812 7.75C14.7812 7.75 14.7812 13 19.0312 13C14.7812 13 14.7812 18.25 14.7812 18.25C14.7812 18.25 14.7812 13 10.5312 13Z" fill="#FA5FFF"/>
<path d="M6.53125 8C8.78125 8 8.78125 5.75 8.78125 5.75C8.78125 5.75 8.78125 8 11.0312 8C8.78125 8 8.78125 10.25 8.78125 10.25C8.78125 10.25 8.78125 8 6.53125 8Z" fill="#FA5FFF"/>
<path d="M8.53125 16.25H8.54125M19.0312 5.75H19.0413M19.0312 18.25H19.0413M14.7812 7.75C14.7812 7.75 14.7812 13 10.5312 13C14.7812 13 14.7812 18.25 14.7812 18.25C14.7812 18.25 14.7812 13 19.0312 13C14.7812 13 14.7812 7.75 14.7812 7.75ZM8.78125 5.75C8.78125 5.75 8.78125 8 6.53125 8C8.78125 8 8.78125 10.25 8.78125 10.25C8.78125 10.25 8.78125 8 11.0312 8C8.78125 8 8.78125 5.75 8.78125 5.75Z" stroke="#FA5FFF" stroke-width="1.5" stroke-linecap="round" stroke-linejoin="round"/>
</svg>
